<?xml version="1.0" encoding="UTF-8"?> <!-- Generator: Adobe Illustrator 24.2.1, SVG Export Plug-In . SVG Version: 6.00 Build 0) --> <svg xmlns="http://www.w3.org/2000/svg" xmlns:xlink="http://www.w3.org/1999/xlink" version="1.1" id="Layer_1" x="0px" y="0px" viewBox="0 0 63 63" style="enable-background:new 0 0 63 63;" xml:space="preserve"> <style type="text/css"> .st0{fill:#2D425E;} </style> <g id="XMLID_1017_"> <g id="XMLID_1278_"> <path id="XMLID_1279_" class="st0" d="M31.6,10c0.9,0,1.6,0.6,1.6,1.3c0,0.7,0.5,1.2,1.2,1.2s1.2-0.5,1.2-1.2 c0-1.7-1.2-3.1-2.8-3.6V7.6c0-0.7-0.5-1.2-1.2-1.2S30.4,7,30.4,7.6v0.2c-1.6,0.5-2.8,1.9-2.8,3.6c0,2.1,1.8,3.7,4,3.7 c0.9,0,1.6,0.6,1.6,1.3s-0.7,1.3-1.6,1.3c-0.9,0-1.6-0.6-1.6-1.3c0-0.7-0.5-1.2-1.2-1.2s-1.2,0.5-1.2,1.2c0,1.7,1.2,3.1,2.8,3.6 v0.2c0,0.7,0.5,1.2,1.2,1.2s1.2-0.5,1.2-1.2V20c1.6-0.5,2.8-1.9,2.8-3.6c0-2.1-1.8-3.7-4-3.7c-0.9,0-1.6-0.6-1.6-1.3 C30,10.6,30.8,10,31.6,10z"></path> <path id="XMLID_1303_" class="st0" d="M54.8,34.1h-5.5c-7.1,0-13,5.8-13,13v5l-3.5,3.5V26.8c6.6-0.6,11.7-6.1,11.7-12.8 c0-1.4-0.2-2.8-0.7-4.1c-0.2-0.6-0.9-1-1.5-0.8c-0.6,0.2-1,0.9-0.8,1.5c0.4,1.1,0.5,2.2,0.5,3.3c0,5.8-4.7,10.5-10.5,10.5 s-10.5-4.7-10.5-10.5S25.8,3.4,31.6,3.4c1.1,0,2.1,0.2,3.1,0.5c0.6,0.2,1.3-0.2,1.5-0.8c0.2-0.6-0.2-1.3-0.8-1.5 C34.2,1.2,32.9,1,31.6,1c-7.1,0-12.9,5.8-12.9,12.9c0,6.7,5.1,12.2,11.7,12.8v18.4l-3.5-3.5v-5c0-7.1-5.8-13-13-13H8.5 c-0.7,0-1.2,0.5-1.2,1.2v5.5c0,7.1,5.8,13,13,13h5l5.2,5.2v11.8H18.3c-0.7,0-1.2,0.5-1.2,1.2s0.5,1.2,1.2,1.2h26.6 c0.7,0,1.2-0.5,1.2-1.2s-0.5-1.2-1.2-1.2H32.8v-1.4l5.2-5.2h5c7.1,0,13-5.8,13-13v-5.5C56,34.6,55.5,34.1,54.8,34.1z M20.2,40.9 c-5.8,0-10.5-4.7-10.5-10.5v-4.3H14c5.8,0,10.5,4.7,10.5,10.5v2.6l-5.3-5.3c-0.5-0.5-1.2-0.5-1.7,0c-0.5,0.5-0.5,1.2,0,1.7 l5.3,5.3H20.2z M53.6,40.8c0,5.8-4.7,10.5-10.5,10.5h-2.6l5.3-5.3c0.5-0.5,0.5-1.2,0-1.7c-0.5-0.5-1.2-0.5-1.7,0l-5.3,5.3V47 c0-5.8,4.7-10.5,10.5-10.5h4.3V40.8z"></path> <path id="XMLID_1306_" class="st0" d="M39.9,6.8c0.3,0,0.6-0.1,0.9-0.4c0.2-0.2,0.4-0.5,0.4-0.9c0-0.3-0.1-0.6-0.4-0.9 s-0.5-0.4-0.9-0.4c-0.3,0-0.6,0.1-0.9,0.4c-0.2,0.2-0.4,0.5-0.4,0.9c0,0.3,0.1,0.6,0.4,0.9C39.3,6.7,39.6,6.8,39.9,6.8z"></path> </g> </g> </svg> 